<?xml version="1.0" encoding="UTF-8"?>
<svg width="30px" height="30px" viewBox="0 0 30 30" version="1.1" xmlns="http://www.w3.org/2000/svg" xmlns:xlink="http://www.w3.org/1999/xlink">
    <!-- Generator: Sketch 46.2 (44496) - http://www.bohemiancoding.com/sketch -->
    <title>github</title>
    <desc>Created with Sketch.</desc>
    <defs></defs>
    <g id="Page-1" stroke="none" stroke-width="1" fill="none" fill-rule="evenodd">
        <g id="Page1" transform="translate(-317.000000, -209.000000)" fill-rule="nonzero" fill="#000000">
            <g id="Search" transform="translate(295.000000, 188.000000)">
                <g id="github" transform="translate(22.000000, 21.000000)">
                    <path d="M27.9878508,7.65801413 C26.6465091,5.30215519 24.8270649,3.43701839 22.5290391,2.06218299 C20.2306714,0.687277457 17.7215389,0 14.9998632,0 C12.2785295,0 9.76857616,0.687487826 7.47068723,2.06218299 C5.17245625,3.43694827 3.35308041,5.30215519 2.01173879,7.65801413 C0.6706024,10.0138029 0,12.5863426 0,15.3755629 C0,18.7260492 0.953605779,21.7388924 2.86129619,24.4148637 C4.76878138,27.0910454 7.23296986,28.9428588 10.2536564,29.9705143 C10.6052729,30.0374118 10.8655648,29.9903591 11.0348059,29.8305484 C11.2041154,29.6705272 11.2886676,29.4701151 11.2886676,29.2301536 C11.2886676,29.1901132 11.2853156,28.8298904 11.2788168,28.1490642 C11.2721128,27.4682381 11.2689661,26.8742946 11.2689661,26.3675143 L10.8197316,26.4471742 C10.5333078,26.5009587 10.1719774,26.5237488 9.73574038,26.5172974 C9.29970858,26.5110565 8.84705367,26.4642142 8.37839132,26.3771212 C7.90952374,26.2907995 7.47342354,26.0905978 7.06974867,25.7769367 C6.66627902,25.4632757 6.37985525,25.0527043 6.21054576,24.5458539 L6.01524127,24.0851445 C5.88506109,23.7784256 5.68011109,23.437697 5.40011766,23.0642208 C5.12012423,22.6903941 4.83698403,22.4369688 4.55056026,22.3035244 L4.41381292,22.2031781 C4.32269363,22.1364909 4.23814149,22.0560596 4.15995129,21.9627256 C4.0818295,21.8693917 4.02334077,21.7759876 3.98427987,21.6824432 C3.94515057,21.5888288 3.9775759,21.5120439 4.08189791,21.451808 C4.18621992,21.3915722 4.37475202,21.3623308 4.64831511,21.3623308 L5.03878727,21.4221459 C5.29921605,21.4756499 5.62134873,21.6354607 6.00559576,21.9025599 C6.38963758,22.1694488 6.70533992,22.5164184 6.9527712,22.9433284 C7.2523977,23.4907101 7.61338605,23.9078029 8.03676239,24.1948171 C8.45979669,24.4818314 8.88631979,24.6250931 9.31592125,24.6250931 C9.7455227,24.6250931 10.116567,24.5917144 10.429191,24.5253078 C10.741473,24.4585505 11.0344639,24.3582042 11.308027,24.2248299 C11.4252097,23.3301981 11.744264,22.6429207 12.2649163,22.1625066 C11.5228277,22.0825662 10.8556457,21.9621647 10.2630283,21.8020734 C9.6707529,21.6417718 9.05870764,21.3816147 8.42730295,21.020901 C7.79555622,20.6606781 7.27148349,20.2133622 6.85494794,19.6797247 C6.43834398,19.1458067 6.09644142,18.4448552 5.82971912,17.5775014 C5.56286,16.7097969 5.42939623,15.7088584 5.42939623,14.5744053 C5.42939623,12.9591175 5.94382345,11.5845626 6.97247267,10.4499692 C6.4906076,9.2355757 6.53609884,7.87420395 7.1090832,6.36599422 C7.48669467,6.24573294 8.04668153,6.33598149 8.78877016,6.6361789 C9.53099561,6.93651655 10.0744278,7.19379857 10.4196139,7.40711333 C10.7648,7.62035797 11.0413731,7.80106545 11.2497435,7.94762294 C12.4609049,7.60072348 13.7107852,7.42723869 14.9997264,7.42723869 C16.2886676,7.42723869 17.5388215,7.60072348 18.7500513,7.94762294 L19.4922083,7.46734916 C19.9997264,7.14688615 20.5990478,6.8532102 21.288736,6.58625118 C21.9788346,6.31943242 22.506533,6.24594331 22.8712837,6.36620459 C23.456992,7.87448444 23.5091872,9.23578607 23.0271853,10.4501796 C24.0557661,11.5847729 24.5703985,12.9596785 24.5703985,14.5746157 C24.5703985,15.7090688 24.4364559,16.7131628 24.1700073,17.587529 C23.9032165,18.4620354 23.5583724,19.1622856 23.1353381,19.6897523 C22.711825,20.2171489 22.1844003,20.6609586 21.5529956,21.0211113 C20.9214541,21.3815446 20.3092036,21.6417016 19.7169282,21.8020033 C19.1243792,21.9623049 18.4571972,22.0827766 17.7151086,22.1628572 C18.3919361,22.7632521 18.7304182,23.7109671 18.7304182,25.0055815 L18.7304182,29.2295926 C18.7304182,29.4695542 18.8118236,29.6698961 18.9747712,29.8299874 C19.1375135,29.9897982 19.3945219,30.0368508 19.7461384,29.9698832 C22.7672354,28.942368 25.2314238,27.0904844 27.1388406,24.4143027 C29.0460522,21.7383314 30,18.7254882 30,15.3750019 C29.9993159,12.5861322 29.3283715,10.0138029 27.9878508,7.65801413 Z" id="Shape"></path>
                </g>
            </g>
        </g>
    </g>
</svg>