<?xml version="1.0" encoding="UTF-8"?>
<svg width="16px" height="14px" viewBox="0 0 16 14" version="1.1" xmlns="http://www.w3.org/2000/svg" xmlns:xlink="http://www.w3.org/1999/xlink">
    <!-- Generator: Sketch 46.2 (44496) - http://www.bohemiancoding.com/sketch -->
    <title>faved</title>
    <desc>Created with Sketch.</desc>
    <defs></defs>
    <g id="Page-1" stroke="none" stroke-width="1" fill="none" fill-rule="evenodd">
        <g id="Page1" transform="translate(-844.000000, -332.000000)" fill="#2A44C6">
            <g id="item" transform="translate(234.000000, 300.000000)">
                <g id="List">
                    <g id="faved" transform="translate(609.681492, 32.000000)">
                        <path d="M10.5978192,5 L14.9095768,5 C15.126498,5.00037694 15.319583,5.13447424 15.3913455,5.33458786 C15.4631081,5.53470149 15.397938,5.75730152 15.2287389,5.89 L11.5307547,8.782 C11.3632255,8.91293079 11.2970575,9.13213466 11.3650359,9.331 L12.7511406,13.394 C12.822628,13.6042527 12.7440445,13.8354231 12.5580455,13.9620306 C12.3720464,14.0886382 12.1229938,14.0804864 11.9460746,13.942 L8.50280631,11.25 C8.31613842,11.1042829 8.05114996,11.1042829 7.86448207,11.25 L4.42121377,13.942 C4.24429458,14.0804864 3.99524195,14.0886382 3.80924293,13.9620306 C3.6232439,13.8354231 3.54466033,13.6042527 3.61614778,13.394 L5.00225251,9.33 C5.07023084,9.13113466 5.0040629,8.91193079 4.83653372,8.781 L1.1385495,5.89 C0.969350341,5.75730152 0.904180275,5.53470149 0.975942848,5.33458786 C1.04770542,5.13447424 1.24079041,5.00037694 1.45771162,5 L5.76946915,5 C5.98952699,4.99983666 6.18481184,4.86209682 6.25435007,4.658 L7.69876327,0.423 C7.76870323,0.21935169 7.96389402,0.0821351627 8.18364419,0.0821351627 C8.40339436,0.0821351627 8.59858515,0.21935169 8.66852511,0.423 L10.1129383,4.658 C10.1824765,4.86209682 10.3777614,4.99983666 10.5978192,5 Z" id="Shape"></path>
                    </g>
                </g>
            </g>
        </g>
    </g>
</svg>